<?xml version="1.0" encoding="UTF-8" standalone="no"?>
<!-- Generator: Adobe Illustrator 16.0.4, SVG Export Plug-In . SVG Version: 6.00 Build 0)  -->

<svg
   xmlns:dc="http://purl.org/dc/elements/1.1/"
   xmlns:cc="http://creativecommons.org/ns#"
   xmlns:rdf="http://www.w3.org/1999/02/22-rdf-syntax-ns#"
   xmlns:svg="http://www.w3.org/2000/svg"
   xmlns="http://www.w3.org/2000/svg"
   xmlns:sodipodi="http://sodipodi.sourceforge.net/DTD/sodipodi-0.dtd"
   xmlns:inkscape="http://www.inkscape.org/namespaces/inkscape"
   version="1.1"
   id="Layer_1"
   viewBox="0 0 350 42"
   enable-background="new 0 0 300 36"
   xml:space="preserve"
   inkscape:version="0.91 r13725"
   sodipodi:docname="logo_350.svg"
   inkscape:export-filename="C:\Users\jlister\Desktop\logo_350.png"
   inkscape:export-xdpi="105"
   inkscape:export-ydpi="105"><metadata
     id="metadata69"><rdf:RDF><cc:Work
         rdf:about=""><dc:format>image/svg+xml</dc:format><dc:type
           rdf:resource="http://purl.org/dc/dcmitype/StillImage" /><dc:title></dc:title></cc:Work></rdf:RDF></metadata><defs
     id="defs67" /><sodipodi:namedview
     pagecolor="#ffffff"
     bordercolor="#666666"
     borderopacity="1"
     objecttolerance="10"
     gridtolerance="10"
     guidetolerance="10"
     inkscape:pageopacity="0"
     inkscape:pageshadow="2"
     inkscape:window-width="1234"
     inkscape:window-height="754"
     id="namedview65"
     showgrid="false"
     fit-margin-top="0"
     fit-margin-left="0"
     fit-margin-right="0"
     fit-margin-bottom="0"
     inkscape:zoom="0.97"
     inkscape:cx="119.09701"
     inkscape:cy="18"
     inkscape:window-x="0"
     inkscape:window-y="0"
     inkscape:window-maximized="0"
     inkscape:current-layer="Layer_1" /><path
     d="m 350,27.515833 c 0,-0.855166 -0.71283,-1.5505 -1.58083,-1.5505 l -4.7635,0 c -0.86684,0 -1.57967,0.695334 -1.57967,1.5505 l 0,4.645667 c 0,0.851667 0.71167,1.544667 1.57967,1.544667 l 4.7635,0 c 0.868,0 1.58083,-0.693 1.58083,-1.544667 l 0,-4.645667 z"
     id="path3"
     inkscape:connector-curvature="0"
     style="fill:#ed7e23" /><path
     d="m 25.7635,9.2341667 6.479667,0 0,4.4975003 0.09567,0 c 1.248334,-3.0485 4.604834,-5.153167 7.919334,-5.153167 0.480666,0 1.055833,0.092167 1.4875,0.2321667 l 0,6.1868333 C 41.123833,14.856333 40.112333,14.763 39.300333,14.763 34.308167,14.763 32.578,18.279333 32.578,22.544667 l 0,10.92 -6.813333,0 0,-24.2305003 z"
     id="path5"
     inkscape:connector-curvature="0"
     style="fill:#a0b1bb" /><path
     d="m 42.309167,16.653 c 0.385,-6.235833 6.098166,-8.1083333 11.664333,-8.1083333 4.942,0 10.894333,1.078 10.894333,6.8891663 l 0,12.609334 c 0,2.202666 0.242667,4.405333 0.8645,5.388833 l -6.913666,0 c -0.238,-0.7525 -0.429334,-1.545833 -0.4795,-2.342667 -2.156,2.203834 -5.325834,2.998334 -8.351,2.998334 -4.702834,0 -8.446667,-2.294834 -8.446667,-7.263667 0,-5.485667 4.223333,-6.795833 8.446667,-7.359333 4.176666,-0.609 8.065166,-0.469 8.065166,-3.187334 0,-2.860666 -2.0195,-3.283 -4.417,-3.283 -2.59,0 -4.272333,1.0325 -4.510333,3.658667 l -6.816833,0 z m 15.744166,4.921 C 56.900667,22.558667 54.502,22.605333 52.388,22.978667 c -2.109333,0.425833 -4.030833,1.128166 -4.030833,3.567666 0,2.480334 1.969333,3.089334 4.1755,3.089334 5.325833,0 5.520666,-4.123 5.520666,-5.576667 l 0,-2.485 z"
     id="path7"
     inkscape:connector-curvature="0"
     style="fill:#a0b1bb" /><path
     d="m 67.104333,9.2341667 6.477334,0 0,3.3740003 0.145833,0 c 1.729,-2.7183337 4.702833,-4.0285003 7.583333,-4.0285003 7.245,0 9.0685,3.9806663 9.0685,9.9820003 l 0,14.904166 -6.812166,0 0,-13.687333 c 0,-3.984167 -1.201667,-5.952333 -4.372667,-5.952333 -3.694833,0 -5.2745,2.016 -5.2745,6.937 l 0,12.7015 -6.816833,0 0,-24.2305003 z"
     id="path9"
     inkscape:connector-curvature="0"
     style="fill:#a0b1bb" /><path
     d="m 110.63617,30.3765 -0.0992,0 c -1.58083,2.6215 -4.36683,3.742667 -7.53083,3.742667 -7.490003,0 -11.137003,-6.280167 -11.137003,-12.980334 0,-6.517 3.696,-12.560333 10.991163,-12.560333 2.92717,0 5.8065,1.2156667 7.38967,3.606167 l -0.0467,0 0.0957,0 0,-12.184667 6.81567,0 0,33.465833 -6.4785,0 0,-3.089333 z M 104.6815,13.591667 c -4.46367,0 -5.996667,3.750833 -5.996667,7.733833 0,3.796333 1.776837,7.7805 5.996667,7.7805 4.51267,0 5.8555,-3.845333 5.8555,-7.827167 -0.001,-3.936333 -1.43733,-7.687166 -5.8555,-7.687166 z"
     id="path11"
     inkscape:connector-curvature="0"
     style="fill:#a0b1bb" /><path
     d="m 125.223,22.967 c 0.19483,4.2175 2.3065,6.140167 6.097,6.140167 2.7335,0 4.942,-1.638 5.376,-3.140667 l 5.99783,0 c -1.91916,5.719 -5.99783,8.153833 -11.6165,8.153833 -7.82016,0 -12.66766,-5.248833 -12.66766,-12.747 0,-7.266 5.13566,-12.7936663 12.66766,-12.7936663 8.45134,0 12.53117,6.9346663 12.05167,14.3873333 l -17.906,0 z m 11.088,-4.221 c -0.6265,-3.374 -2.1105,-5.154333 -5.42383,-5.154333 -4.31667,0 -5.565,3.280666 -5.663,5.154333 l 11.08683,0 z"
     id="path13"
     inkscape:connector-curvature="0"
     style="fill:#5c6f7c" /><path
     d="m 150.85583,20.715333 -8.162,-11.4811663 7.77817,0 4.3645,6.3268333 4.32133,-6.3268333 7.5355,0 -8.15966,11.3423333 9.16533,12.889333 -7.7735,0 -5.1835,-7.6405 -5.18467,7.6405 -7.63116,0 8.92966,-12.7505 z"
     id="path15"
     inkscape:connector-curvature="0"
     style="fill:#5c6f7c" /><path
     d="m 168.5565,9.2341667 6.47967,0 0,3.0905003 0.0957,0 C 176.76167,9.7475 179.4485,8.5785 182.52267,8.5785 c 7.77816,0 11.27583,6.139 11.27583,13.027 0,6.470333 -3.647,12.513667 -10.8955,12.513667 -2.97267,0 -5.803,-1.2635 -7.4375,-3.654 l -0.0933,0 0,11.534833 -6.8145,0 0,-32.7658333 z m 18.42983,12.1846663 c 0,-3.843 -1.5855,-7.827166 -5.9535,-7.827166 -4.46483,0 -5.90333,3.890833 -5.90333,7.827166 0,3.938667 1.53533,7.687167 5.9535,7.687167 4.45783,0 5.90333,-3.7485 5.90333,-7.687167 z"
     id="path17"
     inkscape:connector-curvature="0"
     style="fill:#5c6f7c" /><path
     d="m 201.46117,22.967 c 0.19016,4.2175 2.29716,6.140167 6.09466,6.140167 2.73234,0 4.94084,-1.638 5.37484,-3.140667 l 5.999,0 c -1.92267,5.719 -5.999,8.153833 -11.61534,8.153833 -7.82483,0 -12.66766,-5.248833 -12.66766,-12.747 0,-7.266 5.12866,-12.7936663 12.66766,-12.7936663 8.44667,0 12.5265,6.9346663 12.047,14.3873333 l -17.90016,0 z m 11.08216,-4.221 c -0.6195,-3.374 -2.11166,-5.154333 -5.42033,-5.154333 -4.31667,0 -5.56617,3.280666 -5.66183,5.154333 l 11.08216,0 z"
     id="path19"
     inkscape:connector-curvature="0"
     style="fill:#5c6f7c" /><path
     d="m 220.35067,9.2341667 6.4785,0 0,4.4975003 0.0968,0 c 1.2495,-3.0485 4.60833,-5.153167 7.917,-5.153167 0.48183,0 1.05817,0.092167 1.48867,0.2321667 l 0,6.1868333 c -0.62184,-0.141167 -1.63217,-0.2345 -2.45,-0.2345 -4.99217,0 -6.7165,3.516333 -6.7165,7.781667 l 0,10.92 -6.81567,0 0,-24.2305003 z"
     id="path21"
     inkscape:connector-curvature="0"
     style="fill:#5c6f7c" /><path
     d="m 244.07133,5.4845 -6.811,0 0,-5.4845 6.811,0 0,5.4845 z m -6.811,3.7496667 6.811,0 0,24.2316663 -6.811,0 0,-24.2316663 z"
     id="path23"
     inkscape:connector-curvature="0"
     style="fill:#5c6f7c" /><path
     d="m 251.839,22.967 c 0.19367,4.2175 2.30533,6.140167 6.097,6.140167 2.737,0 4.94667,-1.638 5.37133,-3.140667 l 6.0025,0 c -1.91333,5.719 -6.0025,8.153833 -11.613,8.153833 -7.8225,0 -12.66883,-5.248833 -12.66883,-12.747 0,-7.266 5.13683,-12.7936663 12.66883,-12.7936663 8.449,0 12.52417,6.9346663 12.04584,14.3873333 l -17.90367,0 z m 11.08917,-4.221 c -0.623,-3.374 -2.114,-5.154333 -5.425,-5.154333 -4.31667,0 -5.56734,3.280666 -5.663,5.154333 l 11.088,0 z"
     id="path25"
     inkscape:connector-curvature="0"
     style="fill:#5c6f7c" /><path
     d="m 271.03183,9.2341667 6.47967,0 0,3.3740003 0.14583,0 c 1.72784,-2.7183337 4.69934,-4.0285003 7.58217,-4.0285003 7.25083,0 9.072,3.9806663 9.072,9.9820003 l 0,14.904166 -6.81333,0 0,-13.687333 c 0,-3.984167 -1.20517,-5.952333 -4.37034,-5.952333 -3.69366,0 -5.28033,2.016 -5.28033,6.937 l 0,12.7015 -6.81567,0 0,-24.2305003 z"
     id="path27"
     inkscape:connector-curvature="0"
     style="fill:#5c6f7c" /><path
     d="m 313.348,17.764833 c -0.43283,-2.7195 -2.20733,-4.172 -5.03767,-4.172 -4.368,0 -5.81,4.310834 -5.81,7.875 0,3.465 1.39184,7.639334 5.6665,7.639334 3.16517,0 4.991,-1.967 5.41917,-4.921 l 6.58,0 c -0.8645,6.421333 -5.4285,9.934166 -11.95133,9.934166 -7.48767,0 -12.5265,-5.1555 -12.5265,-12.418 0,-7.5495 4.60716,-13.1226663 12.67116,-13.1226663 5.85317,0 11.228,2.9971663 11.662,9.1851663 l -6.67333,0 z"
     id="path29"
     inkscape:connector-curvature="0"
     style="fill:#5c6f7c" /><path
     d="m 327.68167,22.967 c 0.1925,4.2175 2.30766,6.140167 6.09466,6.140167 2.7335,0 4.94317,-1.638 5.3725,-3.140667 l 6.00367,0 c -1.92033,5.719 -6.00367,8.153833 -11.6165,8.153833 -7.8225,0 -12.6665,-5.248833 -12.6665,-12.747 0,-7.266 5.13217,-12.7936663 12.6665,-12.7936663 8.44667,0 12.5265,6.9346663 12.04817,14.3873333 l -17.9025,0 z m 11.088,-4.221 c -0.62534,-3.374 -2.11517,-5.154333 -5.42617,-5.154333 -4.31667,0 -5.56617,3.280666 -5.66183,5.154333 l 11.088,0 z"
     id="path31"
     inkscape:connector-curvature="0"
     style="fill:#5c6f7c" /><path
     d="M 21.155167,11.250167 C 19.322333,9.4476667 16.94,8.5003333 14.264833,8.5003333 c -3.320333,0 -6.0351663,1.2646667 -7.7069997,3.5454997 0,-0.856333 0,-12.04466633 0,-12.04466633 l -6.55666663,0 0,26.39116633 L 0.00233333,28.119 0,33.507833 l 5.8578333,0 c 0,0 0,-2.536333 0,-3.3985 1.6671667,2.387 4.2419997,3.661 7.5074997,3.661 5.422667,0 11.261834,-4.069333 11.261834,-13.003666 0.028,-3.908334 -1.2075,-7.2905 -3.472,-9.5165 z m -9.217834,17.354166 c -2.501333,0 -4.6141663,-1.631 -5.2604997,-4.058833 C 6.5823333,24.133667 6.531,23.657667 6.531,23.177 l 0,-3.8605 c 0,-0.592667 0.1061667,-1.124667 0.196,-1.524833 0.616,-2.497834 2.779,-4.2455 5.259333,-4.2455 3.619,0 5.957,2.919 5.957,7.4305 0.0023,4.702833 -2.301833,7.627666 -6.006,7.627666 z"
     id="path33"
     inkscape:connector-curvature="0"
     style="fill:#a0b1bb" /><g
     id="g35"
     transform="scale(1.1666667,1.1666667)" /><g
     id="g37"
     transform="scale(1.1666667,1.1666667)" /><g
     id="g39"
     transform="scale(1.1666667,1.1666667)" /><g
     id="g41"
     transform="scale(1.1666667,1.1666667)" /><g
     id="g43"
     transform="scale(1.1666667,1.1666667)" /><g
     id="g45"
     transform="scale(1.1666667,1.1666667)" /><g
     id="g47"
     transform="scale(1.1666667,1.1666667)" /><g
     id="g49"
     transform="scale(1.1666667,1.1666667)" /><g
     id="g51"
     transform="scale(1.1666667,1.1666667)" /><g
     id="g53"
     transform="scale(1.1666667,1.1666667)" /><g
     id="g55"
     transform="scale(1.1666667,1.1666667)" /><g
     id="g57"
     transform="scale(1.1666667,1.1666667)" /><g
     id="g59"
     transform="scale(1.1666667,1.1666667)" /><g
     id="g61"
     transform="scale(1.1666667,1.1666667)" /><g
     id="g63"
     transform="scale(1.1666667,1.1666667)" /></svg>